<svg width="40" height="44" viewBox="0 0 40 44" fill="none" xmlns="http://www.w3.org/2000/svg">
<path fill-rule="evenodd" clip-rule="evenodd" d="M26.5465 31.1329L35.1741 36.3789C35.5641 36.6152 36.3024 36.5414 36.5737 36.0539L39.8947 30.1283C40.166 29.6408 39.8674 28.9285 39.4774 28.6921L30.7311 23.3739L26.5465 25.9181V31.1329ZM13.4503 12.8655L4.82596 7.61949C4.43752 7.38477 3.69595 7.46355 3.42469 7.94777L0.105276 13.8766C-0.167595 14.3625 0.132581 15.0716 0.519416 15.3063L9.26734 20.6261L13.4503 18.0819V12.8655V12.8655ZM15.7296 32.4969V42.9019C15.7296 43.373 16.1678 44 16.7087 44H23.2945C23.8355 44 24.2704 43.3713 24.2704 42.9002V27.3034L15.7296 32.4969V32.4969ZM23.2945 0H16.7087C16.1678 0 15.7296 0.627024 15.7296 1.09483V16.6966L24.2704 11.5031V1.09483C24.2704 0.627024 23.8355 0 23.2945 0V0ZM39.8947 13.8766L36.5753 7.94941C36.3041 7.46519 35.5625 7.38476 35.1756 7.62113L0.522624 28.6921C0.132579 28.9285 -0.16599 29.6408 0.105276 30.1267L3.42469 36.0539C3.69916 36.5414 4.43751 36.6169 4.82756 36.3789L39.4806 15.3063C39.8674 15.0716 40.1676 14.3625 39.8947 13.8782V13.8766Z" fill="#282828"/>
</svg>
