<svg width="172" height="50" viewBox="0 0 172 50" fill="none" xmlns="http://www.w3.org/2000/svg">
<path fill-rule="evenodd" clip-rule="evenodd" d="M10.9803 38.345C10.8603 38.41 10.8203 38.405 10.7043 38.382C10.2586 38.2854 9.80334 38.2394 9.34729 38.245C6.6593 38.245 4.89729 39.625 4.89729 43.326V48.742C4.89729 48.742 4.88729 48.947 4.74929 49.072C4.57929 49.227 4.34829 49.224 4.34829 49.224H0.516295C0.516295 49.224 0.280295 49.196 0.151295 49.092C-0.0137053 48.958 0.000294666 48.822 0.000294666 48.822V34.547C0.000294666 34.547 0.0162947 34.364 0.164295 34.248C0.368295 34.088 0.670295 34.106 0.670295 34.106H4.31929C4.31929 34.106 4.59129 34.131 4.72329 34.254C4.81004 34.3464 4.87046 34.4604 4.89829 34.584V36.551C5.60229 35.141 7.4603 33.855 9.6053 33.855C10.1213 33.855 10.5003 33.9 10.8773 34.029C10.9433 34.052 10.9973 34.103 11.0333 34.167C11.0813 34.252 11.0773 34.326 11.0773 34.326V38.087C11.0773 38.087 11.0913 38.287 10.9813 38.345H10.9803ZM68.4363 38.345C68.3143 38.41 68.2753 38.405 68.1593 38.382C67.7136 38.2854 67.2583 38.2395 66.8023 38.245C64.1143 38.245 62.3523 39.625 62.3523 43.326V48.742C62.3523 48.742 62.3423 48.947 62.2053 49.072C62.0333 49.227 61.8033 49.224 61.8033 49.224H57.9723C57.9723 49.224 57.7363 49.196 57.6073 49.092C57.4423 48.958 57.4563 48.822 57.4563 48.822V34.547C57.4563 34.547 57.4723 34.364 57.6193 34.248C57.8243 34.088 58.1263 34.106 58.1263 34.106H61.7743C61.7743 34.106 62.0463 34.131 62.1773 34.254C62.3113 34.382 62.3533 34.584 62.3533 34.584V36.551C63.0573 35.141 64.9153 33.855 67.0593 33.855C67.5763 33.855 67.9543 33.9 68.3313 34.029C68.3973 34.052 68.4513 34.103 68.4873 34.167C68.5363 34.252 68.5313 34.326 68.5313 34.326V38.087C68.5313 38.087 68.5463 38.287 68.4363 38.345ZM30.4983 44.742C30.5203 44.646 30.5003 44.602 30.4373 44.527C30.3893 44.471 30.2613 44.455 30.2613 44.455H25.9663C25.9663 44.455 25.8303 44.457 25.7863 44.485C25.7381 44.5239 25.7023 44.576 25.6833 44.635C25.2993 45.519 24.4973 46.18 22.9063 46.18C20.4093 46.18 19.5443 44.643 19.5443 42.824H30.2363C30.2363 42.824 30.3713 42.826 30.4863 42.724C30.5763 42.644 30.6273 42.593 30.6433 42.482C30.7483 41.737 30.7483 41.144 30.7483 40.597C30.7483 36.897 27.6433 33.697 22.8103 33.697C17.4643 33.697 14.6143 37.242 14.6143 41.663C14.6143 46.117 17.5273 49.63 22.9373 49.63C27.2073 49.63 29.8623 47.463 30.4973 44.741L30.4983 44.742ZM25.9473 40.189H19.5443C19.5443 38.151 20.9213 37.084 22.7783 37.084C24.6343 37.084 25.9473 38.245 25.9473 40.189ZM47.4513 27.268C47.4513 27.268 47.2233 27.313 47.1113 27.456C47.0218 27.5827 46.961 27.7274 46.9333 27.88V36.268C46.1973 34.888 44.2113 33.728 42.2273 33.728C37.7773 33.728 34.7033 37.146 34.7033 41.663C34.7033 46.18 37.7773 49.598 42.2273 49.598C44.2113 49.598 46.1973 48.469 46.9333 47.088V48.525C46.9333 48.525 46.9443 48.835 47.1023 49.017C47.2513 49.192 47.5373 49.222 47.5373 49.222H51.2333C51.2333 49.222 51.4923 49.202 51.6803 49.02C51.8533 48.852 51.8303 48.525 51.8303 48.525V27.882C51.8303 27.882 51.8303 27.64 51.6673 27.448C51.5113 27.265 51.2733 27.268 51.2733 27.268H47.4513ZM43.2513 37.806C45.4603 37.806 46.9333 39.594 46.9333 41.663C46.9333 43.765 45.4603 45.522 43.2503 45.521C41.0423 45.521 39.5703 43.765 39.5703 41.663C39.5703 39.593 41.0423 37.806 43.2503 37.806H43.2513ZM105.901 27.268C105.901 27.268 105.672 27.313 105.559 27.456C105.469 27.5835 105.408 27.7293 105.381 27.883V36.268C104.645 34.888 102.662 33.728 100.676 33.728C96.2263 33.728 93.1543 37.146 93.1543 41.663C93.1543 46.18 96.2263 49.598 100.676 49.598C102.661 49.598 104.645 48.469 105.381 47.088V48.525C105.381 48.525 105.394 48.835 105.552 49.017C105.7 49.192 105.987 49.222 105.987 49.222H109.683C109.683 49.222 109.942 49.202 110.129 49.02C110.302 48.852 110.28 48.525 110.28 48.525V27.882C110.28 27.882 110.28 27.64 110.116 27.448C109.96 27.265 109.722 27.268 109.722 27.268H105.901ZM101.7 37.806C103.909 37.806 105.381 39.594 105.381 41.663C105.381 43.765 103.909 45.521 101.7 45.521C99.4903 45.521 98.0193 43.765 98.0193 41.663C98.0193 39.593 99.4913 37.806 101.7 37.806ZM84.4593 34.105C84.4593 34.105 84.1973 34.108 84.0453 34.255C83.9193 34.378 83.8803 34.568 83.8803 34.568V36.269C83.1453 34.889 81.1603 33.729 79.1743 33.729C74.7243 33.729 71.6523 37.147 71.6523 41.663C71.6523 46.18 74.7253 49.599 79.1743 49.599C81.1603 49.599 83.1443 48.47 83.8803 47.089V48.814C83.8803 48.814 83.9603 48.983 84.0283 49.06C84.1613 49.213 84.4583 49.223 84.4583 49.223H88.1833C88.1833 49.223 88.4923 49.203 88.6353 49.083C88.7553 48.983 88.7783 48.813 88.7783 48.813V34.569C88.7783 34.569 88.8133 34.43 88.6373 34.257C88.4873 34.113 88.1653 34.107 88.1653 34.107H84.4593V34.105ZM80.1993 37.805C82.4073 37.805 83.8803 39.594 83.8803 41.663C83.8803 43.765 82.4063 45.522 80.2003 45.521C77.9903 45.521 76.5173 43.765 76.5173 41.663C76.5173 39.593 77.9903 37.806 80.2003 37.806L80.1993 37.805ZM119.041 26.044C120.834 26.044 122.21 27.393 122.21 29.087C122.21 30.748 120.834 32.129 119.041 32.129C117.281 32.129 115.904 30.749 115.904 29.087C115.904 27.393 117.281 26.044 119.041 26.044ZM120.939 34.114C121.247 34.114 121.496 34.427 121.496 34.659V48.667C121.496 48.9 121.247 49.214 120.939 49.214H117.177C116.871 49.214 116.62 48.9 116.62 48.667V34.659C116.62 34.427 116.871 34.114 117.177 34.114H120.939ZM130.715 40.642L133.552 36.597L132.127 34.557C132.127 34.557 132.001 34.377 131.753 34.215C131.546 34.078 131.081 34.095 131.081 34.095L127.04 34.097C127.04 34.097 126.786 34.152 126.674 34.393C126.642 34.4695 126.627 34.5525 126.632 34.6354C126.637 34.7184 126.662 34.7991 126.703 34.871L130.715 40.641V40.642ZM141.828 48.492L137.066 41.656L141.828 34.816C141.828 34.816 141.973 34.588 141.856 34.339C141.745 34.097 141.466 34.097 141.466 34.097L137.377 34.096C137.377 34.096 136.913 34.078 136.704 34.215C136.456 34.377 136.327 34.597 136.327 34.597L126.657 48.494C126.657 48.494 126.511 48.723 126.627 48.971C126.739 49.213 127.019 49.213 127.019 49.213H131.099C131.099 49.213 131.563 49.231 131.773 49.093C132.019 48.931 132.15 48.71 132.15 48.71L134.241 45.717L136.298 48.674C136.298 48.674 136.429 48.896 136.676 49.057C136.885 49.195 137.349 49.212 137.349 49.212H141.465C141.465 49.212 141.745 49.212 141.856 48.97C141.973 48.723 141.828 48.493 141.828 48.493V48.492Z" fill="#282828"/>
<path fill-rule="evenodd" clip-rule="evenodd" d="M163.225 18.967L168.6 22.163C168.843 22.307 169.303 22.262 169.472 21.965L171.541 18.355C171.71 18.058 171.524 17.624 171.281 17.48L165.832 14.24L163.225 15.79V18.967ZM155.066 7.838L149.693 4.642C149.451 4.499 148.989 4.547 148.82 4.842L146.752 8.454C146.582 8.75 146.769 9.182 147.01 9.325L152.46 12.566L155.066 11.016V7.838ZM156.486 19.798V26.137C156.486 26.424 156.759 26.806 157.096 26.806H161.199C161.536 26.806 161.807 26.423 161.807 26.136V16.634L156.486 19.798ZM161.199 0H157.096C156.759 0 156.486 0.382 156.486 0.667V10.172L161.807 7.008V0.667C161.807 0.382 161.536 0 161.199 0ZM171.541 8.454L169.473 4.843C169.304 4.548 168.842 4.499 168.601 4.643L147.012 17.48C146.769 17.624 146.583 18.058 146.752 18.354L148.82 21.965C148.991 22.262 149.451 22.308 149.694 22.163L171.283 9.325C171.524 9.182 171.711 8.75 171.541 8.455V8.454Z" fill="#282828"/>
</svg>
